<svg xmlns="http://www.w3.org/2000/svg" width="618" height="702" viewBox="0 0 618 702" font-family="Inter, Helvetica, Arial, sans-serif">
<rect width="100%" height="100%" fill="#ffffff"/>
<g fill="none" stroke="#1f2328" stroke-width="1.5" stroke-linejoin="round">
<g data-id="edge:BOOKS#0" class="er-edge"><polyline points="192,278 168,278 168,294 185,294 185,230"/></g>
<g data-id="edge:BOOKS#1" class="er-edge"><polyline points="256,310 256,334 185,334 185,398"/></g>
<g data-id="edge:BOOKS#2" class="er-edge"><polyline points="320,278 344,278 344,294 399,294 399,230"/></g>
<g data-id="edge:A:HOST.HostId" class="er-edge"><polyline points="162,184 90.8,112.8"/></g>
<g data-id="edge:A:TOPIC.TopicId" class="er-edge"><polyline points="174.2,444 126.9,544.2"/></g>
<g data-id="edge:A:ROOM.RoomId" class="er-edge"><polyline points="447.8,184 510.4,154.5"/></g>
<g data-id="edge:A:BOOKS.StartsAt" class="er-edge"><polyline points="253.4,247.3 243.5,132"/></g>
</g>
<g data-id="E:HOST" class="er-entity"><rect x="130" y="184" width="110" height="46" fill="#eef1f4" stroke="#1f2328" stroke-width="1.5"/><text x="185" y="207" font-size="16" font-weight="700" text-anchor="middle" dominant-baseline="central" fill="#1f2328">HOST</text></g>
<g data-id="E:TOPIC" class="er-entity"><rect x="130" y="398" width="110" height="46" fill="#eef1f4" stroke="#1f2328" stroke-width="1.5"/><text x="185" y="421" font-size="16" font-weight="700" text-anchor="middle" dominant-baseline="central" fill="#1f2328">TOPIC</text></g>
<g data-id="E:ROOM" class="er-entity"><rect x="344" y="184" width="110" height="46" fill="#eef1f4" stroke="#1f2328" stroke-width="1.5"/><text x="399" y="207" font-size="16" font-weight="700" text-anchor="middle" dominant-baseline="central" fill="#1f2328">ROOM</text></g>
<g data-id="R:BOOKS" class="er-relationship"><polygon points="256,246 320,278 256,310 192,278" fill="#eef1f4" stroke="#1f2328" stroke-width="1.5"/><text x="256" y="278" font-size="14" font-weight="700" text-anchor="middle" dominant-baseline="central" fill="#1f2328">BOOKS</text></g>
<g data-id="A:HOST.HostId" class="er-attribute"><ellipse cx="75" cy="97" rx="43" ry="17" fill="#ffffff" stroke="#1f2328" stroke-width="1.5"/><text x="75" y="97" font-size="14" font-weight="400" text-anchor="middle" dominant-baseline="central" fill="#1f2328">HostId</text><line x1="53.4" y1="105.7" x2="96.6" y2="105.7" stroke="#1f2328" stroke-width="1.2"/></g>
<g data-id="A:TOPIC.TopicId" class="er-attribute"><ellipse cx="119" cy="561" rx="47" ry="17" fill="#ffffff" stroke="#1f2328" stroke-width="1.5"/><text x="119" y="561" font-size="14" font-weight="400" text-anchor="middle" dominant-baseline="central" fill="#1f2328">TopicId</text><line x1="94.1" y1="569.7" x2="143.9" y2="569.7" stroke="#1f2328" stroke-width="1.2"/></g>
<g data-id="A:ROOM.RoomId" class="er-attribute"><ellipse cx="539" cy="141" rx="47" ry="17" fill="#ffffff" stroke="#1f2328" stroke-width="1.5"/><text x="539" y="141" font-size="14" font-weight="400" text-anchor="middle" dominant-baseline="central" fill="#1f2328">RoomId</text><line x1="513.8" y1="149.7" x2="564.2" y2="149.7" stroke="#1f2328" stroke-width="1.2"/></g>
<g data-id="A:BOOKS.StartsAt" class="er-attribute"><ellipse cx="242" cy="115" rx="48.5" ry="17" fill="#ffffff" stroke="#1f2328" stroke-width="1.5"/><text x="242" y="115" font-size="14" font-weight="400" text-anchor="middle" dominant-baseline="central" fill="#1f2328">StartsAt</text></g>
<g data-id="label:edge:BOOKS#0:cardinality" class="er-label"><text x="160" y="250" font-size="13" text-anchor="middle" dominant-baseline="central" fill="#1f2328">(0,N)</text></g>
<g data-id="label:edge:BOOKS#1:cardinality" class="er-label"><text x="210" y="378" font-size="13" text-anchor="middle" dominant-baseline="central" fill="#1f2328">(0,N)</text></g>
<g data-id="label:edge:BOOKS#2:cardinality" class="er-label"><text x="374" y="250" font-size="13" text-anchor="middle" dominant-baseline="central" fill="#1f2328">(0,N)</text></g>
<g data-id="title" class="er-label"><text x="32" y="52" font-size="20" font-weight="700" fill="#1f2328">Workshop bookings</text></g>
<g data-id="note:0" class="er-label"><text x="32" y="640" font-size="13" fill="#57606a">A booking records a host, topic and room together.</text></g>
<g data-id="note:1" class="er-label"><text x="32" y="660" font-size="13" fill="#57606a">Each host-topic-room combination has at most one current booking.</text></g>
<g data-id="note:2" class="er-label"><text x="32" y="680" font-size="13" fill="#57606a">Repeat bookings require a separate booking entity with its own key.</text></g>
</svg>
